<?xml version="1.0" encoding="UTF-8"?>
<svg id="Layer_1" xmlns="http://www.w3.org/2000/svg" version="1.1" xmlns:xlink="http://www.w3.org/1999/xlink" viewBox="0 0 200 200">
  <!-- Generator: Adobe Illustrator 29.0.1, SVG Export Plug-In . SVG Version: 2.1.0 Build 192)  -->
  <defs>
    <style>
      .st0 {
        fill: url(#linear-gradient2);
      }

      .st1 {
        fill: url(#linear-gradient1);
      }

      .st2 {
        fill: url(#linear-gradient4);
      }

      .st3 {
        fill: url(#linear-gradient5);
      }

      .st4 {
        fill: url(#linear-gradient3);
      }

      .st5 {
        fill: url(#linear-gradient);
      }
    </style>
    <linearGradient id="linear-gradient" x1="33.9" y1="189.1" x2="89.4" y2="189.1" gradientTransform="translate(0 201) scale(1 -1)" gradientUnits="userSpaceOnUse">
      <stop offset="0" stop-color="#2b398f"/>
      <stop offset="1" stop-color="#5f2b8a"/>
    </linearGradient>
    <linearGradient id="linear-gradient1" y1="55" y2="55" xlink:href="#linear-gradient"/>
    <linearGradient id="linear-gradient2" x1="110.9" y1="16.8" x2="166.4" y2="16.8" xlink:href="#linear-gradient"/>
    <linearGradient id="linear-gradient3" x1="110.9" y1="150.8" x2="166.4" y2="150.8" xlink:href="#linear-gradient"/>
    <linearGradient id="linear-gradient4" x1="-207.7" y1="143.3" x2="331" y2="143.3" xlink:href="#linear-gradient"/>
    <linearGradient id="linear-gradient5" x1="-130.7" y1="66.3" x2="408" y2="66.3" xlink:href="#linear-gradient"/>
  </defs>
  <g id="Layer_11" data-name="Layer_1">
    <g>
      <rect class="st5" x="58.8" y="1.6" width="5.7" height="20.5"/>
      <rect class="st1" x="58.8" y="94.2" width="5.7" height="103.6"/>
      <rect class="st0" x="135.8" y="170.7" width="5.7" height="27"/>
      <rect class="st4" x="135.8" y="1.6" width="5.7" height="97.1"/>
      <path class="st2" d="M70.8,31.5c-2-.7-4.1-1.2-6.2-1.4-.9,0-1.9-.1-2.9-.1s-1.9,0-2.9.1c-2,.2-3.9.6-5.8,1.2-11.1,3.6-19.1,14-19.1,26.4s9,23.9,21.1,26.9c1.2.3,2.5.6,3.8.7.9,0,1.9.1,2.9.1s1.9,0,2.9-.1c1.3-.1,2.6-.4,3.8-.7,12.1-3,21.1-13.9,21.1-26.9s-7.8-22.4-18.6-26.2Z"/>
      <path class="st3" d="M147.1,108.3c-1.8-.6-3.6-1-5.6-1.2-.9,0-1.9-.1-2.9-.1s-1.9,0-2.9.1c-1.9.2-3.8.6-5.6,1.2-11.2,3.6-19.3,14-19.3,26.4s8.1,22.9,19.3,26.4c1.8.6,3.6,1,5.6,1.2.9,0,1.9.1,2.9.1s1.9,0,2.9-.1c1.9-.2,3.8-.6,5.6-1.2,11.2-3.6,19.3-14,19.3-26.4s-8.1-22.9-19.3-26.4Z"/>
    </g>
  </g>
</svg>